<svg width="69" height="68" viewBox="0 0 69 68" fill="none" xmlns="http://www.w3.org/2000/svg">
<g filter="url(#filter0_d_176_50)">
<path fill-rule="evenodd" clip-rule="evenodd" d="M8.76552 29.9738H15.5307C16.0859 29.9738 16.6183 30.1943 17.0109 30.5869C17.4034 30.9794 17.624 31.5118 17.624 32.067V48.8126C17.624 49.3677 17.4034 49.9002 17.0109 50.2927C16.6183 50.6853 16.0859 50.9058 15.5307 50.9058H7.15794C6.66803 50.9059 6.19357 50.7343 5.81721 50.4206C5.44084 50.107 5.18642 49.6713 5.09823 49.1894C3.66229 41.298 3.31064 29.3667 7.08259 19.2984C8.97903 14.2329 11.9556 9.54412 16.4476 6.1322C20.9605 2.69935 26.855 0.668945 34.3696 0.668945C41.8883 0.668945 47.7828 2.70354 52.2957 6.1322C56.7878 9.54831 59.7643 14.2287 61.6607 19.2984C65.4327 29.3667 65.0768 41.298 63.6451 49.1894C63.5569 49.6713 63.3025 50.107 62.9261 50.4206C62.5497 50.7343 62.0753 50.9059 61.5854 50.9058H57.625C51.4333 58.1818 42.0809 59.7307 36.3832 59.2786H32.2764C31.7212 59.2786 31.1888 59.0581 30.7962 58.6655C30.4037 58.273 30.1832 57.7405 30.1832 57.1854V52.999C30.1832 52.4438 30.4037 51.9114 30.7962 51.5189C31.1888 51.1263 31.7212 50.9058 32.2764 50.9058H36.4628C37.0179 50.9058 37.5503 51.1263 37.9429 51.5189C38.3354 51.9114 38.556 52.4438 38.556 52.999V55.1634C42.5917 55.1131 47.8247 53.9284 52.0236 50.5374C51.7436 50.3452 51.5146 50.0877 51.3564 49.7872C51.1981 49.4867 51.1153 49.1522 51.1152 48.8126V32.067C51.1152 31.5118 51.3357 30.9794 51.7283 30.5869C52.1208 30.1943 52.6532 29.9738 53.2084 29.9738H59.9694C59.5508 26.8256 58.8349 23.6942 57.7381 20.7637C56.0426 16.2424 53.4679 12.2862 49.7546 9.46458C46.0664 6.65969 41.0929 4.85535 34.3696 4.85535C27.6462 4.85535 22.6769 6.6555 18.9803 9.46458C15.267 12.2862 12.7007 16.2382 11.0011 20.7679C9.90996 23.742 9.15998 26.8304 8.76552 29.9738Z" fill="black"/>
</g>
<defs>
<filter id="filter0_d_176_50" x="0.0878906" y="0.668945" width="68.5659" height="66.6816" filterUnits="userSpaceOnUse" color-interpolation-filters="sRGB">
<feFlood flood-opacity="0" result="BackgroundImageFix"/>
<feColorMatrix in="SourceAlpha" type="matrix" values="0 0 0 0 0 0 0 0 0 0 0 0 0 0 0 0 0 0 127 0" result="hardAlpha"/>
<feOffset dy="4"/>
<feGaussianBlur stdDeviation="2"/>
<feComposite in2="hardAlpha" operator="out"/>
<feColorMatrix type="matrix" values="0 0 0 0 0 0 0 0 0 0 0 0 0 0 0 0 0 0 0.25 0"/>
<feBlend mode="normal" in2="BackgroundImageFix" result="effect1_dropShadow_176_50"/>
<feBlend mode="normal" in="SourceGraphic" in2="effect1_dropShadow_176_50" result="shape"/>
</filter>
</defs>
</svg>
