<svg width="12" height="12" viewBox="0 0 12 12" fill="none" xmlns="http://www.w3.org/2000/svg">
<g clip-path="url(#clip0_101_149)">
<path fill-rule="evenodd" clip-rule="evenodd" d="M1.41361 0.383116C1.54485 0.252083 1.70243 0.150435 1.87591 0.0849085C2.0494 0.0193823 2.23483 -0.00852597 2.41992 0.00303319C2.60501 0.0145923 2.78553 0.065355 2.94951 0.151957C3.1135 0.238559 3.25721 0.359023 3.37111 0.505366L4.71737 2.23487C4.96412 2.55212 5.05112 2.96537 4.95362 3.35537L4.54337 4.99787C4.5223 5.08295 4.52352 5.17202 4.54691 5.25649C4.57029 5.34096 4.61505 5.41798 4.67687 5.48012L6.51962 7.32287C6.58183 7.38481 6.65897 7.42964 6.74359 7.45303C6.8282 7.47642 6.91742 7.47757 7.00261 7.45637L8.64437 7.04612C8.83685 6.99827 9.03767 6.99468 9.23174 7.0356C9.42581 7.07651 9.60808 7.16088 9.76487 7.28237L11.4944 8.62787C12.1161 9.11162 12.1731 10.0304 11.6166 10.5861L10.8411 11.3616C10.2861 11.9166 9.45662 12.1604 8.68336 11.8881C6.70387 11.1926 4.90677 10.0594 3.42586 8.57312C1.93964 7.09243 0.806529 5.29559 0.110865 3.31637C-0.160635 2.54387 0.0831149 1.71362 0.638115 1.15862L1.41361 0.383116Z" fill="#EABB38"/>
</g>
<defs>
<clipPath id="clip0_101_149">
<rect width="12" height="12" fill="white"/>
</clipPath>
</defs>
</svg>
