<svg width="76" height="73" viewBox="0 0 76 73" fill="none" xmlns="http://www.w3.org/2000/svg">
<g filter="url(#filter0_d_176_40)">
<path d="M25.9799 63.1033L21.4052 55.3736L12.7291 53.4806C11.9403 53.3229 11.3093 52.9159 10.8361 52.2596C10.3628 51.6034 10.1788 50.8799 10.284 50.089L11.1516 41.1762L5.23601 34.393C4.71018 33.8146 4.44727 33.1311 4.44727 32.3423C4.44727 31.5536 4.71018 30.87 5.23601 30.2916L11.1516 23.5084L10.284 14.5956C10.1788 13.8069 10.3628 13.0833 10.8361 12.425C11.3093 11.7666 11.9403 11.3597 12.7291 11.204L21.4052 9.31103L25.9799 1.58135C26.4006 0.897773 26.979 0.437147 27.7152 0.199473C28.4513 -0.0382016 29.1875 0.00176127 29.9237 0.319362L38.1266 3.78983L46.3295 0.319362C47.0657 0.00386458 47.8018 -0.0360983 48.538 0.199473C49.2741 0.435044 49.8526 0.895669 50.2732 1.58135L54.8479 9.31103L63.5241 11.204C64.3128 11.3618 64.9438 11.7698 65.4171 12.4281C65.8903 13.0865 66.0744 13.809 65.9692 14.5956L65.1016 23.5084L71.0171 30.2916C71.543 30.87 71.8059 31.5536 71.8059 32.3423C71.8059 33.1311 71.543 33.8146 71.0171 34.393L65.1016 41.1762L65.9692 50.089C66.0744 50.8778 65.8903 51.6013 65.4171 52.2596C64.9438 52.918 64.3128 53.325 63.5241 53.4806L54.8479 55.3736L50.2732 63.1033C49.8526 63.7869 49.2741 64.2475 48.538 64.4851C47.8018 64.7228 47.0657 64.6829 46.3295 64.3653L38.1266 60.8948L29.9237 64.3653C29.1875 64.6808 28.4513 64.7207 27.7152 64.4851C26.979 64.2496 26.4006 63.789 25.9799 63.1033ZM38.1266 48.1172C39.0205 48.1172 39.7703 47.8143 40.3761 47.2085C40.9818 46.6028 41.2837 45.854 41.2816 44.9622C41.2794 44.0704 40.9766 43.3216 40.3729 42.7159C39.7693 42.1101 39.0205 41.8072 38.1266 41.8072C37.2327 41.8072 36.4839 42.1101 35.8802 42.7159C35.2766 43.3216 34.9737 44.0704 34.9716 44.9622C34.9695 45.854 35.2724 46.6038 35.8802 47.2117C36.4881 47.8195 37.2369 48.1214 38.1266 48.1172ZM38.1266 35.4973C39.0205 35.4973 39.7703 35.1944 40.3761 34.5886C40.9818 33.9829 41.2837 33.2341 41.2816 32.3423V19.7224C41.2816 18.8285 40.9787 18.0797 40.3729 17.4761C39.7672 16.8724 39.0184 16.5696 38.1266 16.5675C37.2348 16.5654 36.486 16.8682 35.8802 17.4761C35.2745 18.0839 34.9716 18.8327 34.9716 19.7224V32.3423C34.9716 33.2362 35.2745 33.986 35.8802 34.5918C36.486 35.1976 37.2348 35.4994 38.1266 35.4973Z" fill="black"/>
</g>
<defs>
<filter id="filter0_d_176_40" x="0.447266" y="0.046875" width="75.3584" height="72.5908" filterUnits="userSpaceOnUse" color-interpolation-filters="sRGB">
<feFlood flood-opacity="0" result="BackgroundImageFix"/>
<feColorMatrix in="SourceAlpha" type="matrix" values="0 0 0 0 0 0 0 0 0 0 0 0 0 0 0 0 0 0 127 0" result="hardAlpha"/>
<feOffset dy="4"/>
<feGaussianBlur stdDeviation="2"/>
<feComposite in2="hardAlpha" operator="out"/>
<feColorMatrix type="matrix" values="0 0 0 0 0 0 0 0 0 0 0 0 0 0 0 0 0 0 0.25 0"/>
<feBlend mode="normal" in2="BackgroundImageFix" result="effect1_dropShadow_176_40"/>
<feBlend mode="normal" in="SourceGraphic" in2="effect1_dropShadow_176_40" result="shape"/>
</filter>
</defs>
</svg>
