<svg width="35" height="36" viewBox="0 0 35 36" fill="none" xmlns="http://www.w3.org/2000/svg">
<path d="M31.0709 0.649902H4.15302C2.03805 0.649902 0.307617 2.38033 0.307617 4.49531V31.4131C0.307617 33.53 2.03805 35.2585 4.15302 35.2585H17.6119V21.7996H13.7665V17.0409H17.6119V13.0994C17.6119 8.93867 19.9423 6.01616 24.8528 6.01616L28.3195 6.02001V11.0287H26.018C24.1068 11.0287 23.38 12.463 23.38 13.7935V17.0429H28.3175L27.2255 21.7996H23.38V35.2585H31.0709C33.1858 35.2585 34.9163 33.53 34.9163 31.4131V4.49531C34.9163 2.38033 33.1858 0.649902 31.0709 0.649902Z" fill="#FF2127"/>
</svg>
