<svg width="238" height="239" viewBox="0 0 238 239" fill="none" xmlns="http://www.w3.org/2000/svg">
<path d="M228.908 219.84C229.983 218.978 230.699 217.748 230.919 216.388C231.139 215.027 230.846 213.634 230.098 212.477C230.098 212.477 199.269 163.985 188.838 147.92C179.82 133.993 165.689 124.492 150.219 118.449C149.085 118.002 145.775 116.403 145.775 116.403C145.025 109.824 141.882 103.751 136.945 99.3384C132.008 94.9259 125.621 92.4825 119 92.4731C117.479 92.4869 115.962 92.6237 114.463 92.8822L42.5052 20.9058C38.1433 16.5353 32.3227 13.9271 26.1577 13.5806C19.9926 13.2341 13.9164 15.1736 9.09225 19.0278C8.01724 19.8898 7.3004 21.1201 7.08056 22.4804C6.86071 23.8407 7.15351 25.2342 7.90225 26.391C7.90225 26.391 38.7307 74.8834 49.1618 90.9484C58.1797 104.875 72.311 114.377 87.781 120.42C88.9152 120.866 92.2249 122.465 92.2249 122.465C92.9749 129.044 96.1174 135.117 101.054 139.53C105.991 143.942 112.378 146.386 119 146.395C120.521 146.381 122.038 146.244 123.537 145.986L195.495 217.962C199.857 222.333 205.677 224.94 211.842 225.287C218.007 225.633 224.083 223.694 228.908 219.84ZM119 140.817C114.771 140.817 110.637 139.563 107.12 137.213C103.604 134.864 100.863 131.524 99.2448 127.617C97.6264 123.71 97.2029 119.41 98.028 115.262C98.853 111.115 100.89 107.305 103.88 104.314C106.87 101.324 110.68 99.2872 114.828 98.4621C118.976 97.6371 123.276 98.0605 127.183 99.6789C131.09 101.297 134.429 104.038 136.779 107.554C139.129 111.071 140.383 115.205 140.383 119.434C140.376 125.103 138.121 130.538 134.112 134.546C130.104 138.555 124.669 140.81 119 140.817Z" fill="#FF2127"/>
<path d="M184.188 58.4114C184.711 57.8884 185.004 57.1791 185.004 56.4396C185.004 55.7 184.711 54.9907 184.188 54.4677C169.977 40.2063 151.48 30.9995 131.534 28.2589C111.588 25.5184 91.2943 29.3952 73.7632 39.2952C73.1192 39.6594 72.6462 40.2645 72.4483 40.9774C72.2504 41.6903 72.3439 42.4526 72.708 43.0967C73.0722 43.7407 73.6773 44.2137 74.3902 44.4116C75.1032 44.6095 75.8655 44.516 76.5095 44.1519C92.9789 34.8516 112.044 31.2102 130.782 33.7859C149.519 36.3616 166.895 45.0123 180.244 58.4114C180.767 58.9343 181.476 59.228 182.216 59.228C182.955 59.228 183.665 58.9343 184.188 58.4114Z" fill="#FF2127"/>
<path d="M53.8122 180.457C53.2893 180.98 52.9956 181.689 52.9956 182.429C52.9956 183.168 53.2893 183.877 53.8122 184.4C68.0233 198.662 86.5198 207.869 106.466 210.61C126.412 213.35 146.706 209.473 164.237 199.573C164.881 199.209 165.354 198.604 165.552 197.891C165.75 197.178 165.656 196.415 165.292 195.771C164.928 195.127 164.323 194.654 163.61 194.457C162.897 194.259 162.135 194.352 161.49 194.716C145.021 204.016 125.956 207.658 107.219 205.082C88.4818 202.506 71.1065 193.856 57.7578 180.457C57.4988 180.198 57.1912 179.992 56.8527 179.852C56.5142 179.711 56.1514 179.639 55.785 179.639C55.4186 179.639 55.0558 179.711 54.7173 179.852C54.3788 179.992 54.0712 180.198 53.8122 180.457Z" fill="#FF2127"/>
<path d="M119 53.4264C110.229 53.41 101.545 55.161 93.4652 58.575C93.1203 58.7122 92.8063 58.9169 92.5415 59.1771C92.2768 59.4372 92.0666 59.7476 91.9234 60.09C91.7801 60.4324 91.7066 60.8 91.7073 61.1712C91.7079 61.5424 91.7826 61.9097 91.927 62.2516C92.0715 62.5935 92.2827 62.9032 92.5483 63.1625C92.814 63.4217 93.1287 63.6253 93.474 63.7614C93.8194 63.8974 94.1884 63.9632 94.5595 63.9548C94.9306 63.9464 95.2962 63.864 95.6351 63.7124C104.298 60.0721 113.692 58.5071 123.067 59.1425C132.442 59.7778 141.539 62.5959 149.631 67.3717C149.946 67.5587 150.295 67.6819 150.658 67.7342C151.02 67.7864 151.39 67.7668 151.745 67.6763C152.1 67.5858 152.433 67.4263 152.727 67.2069C153.02 66.9874 153.267 66.7124 153.454 66.3974C153.641 66.0824 153.764 65.7337 153.817 65.3711C153.869 65.0085 153.849 64.6391 153.759 64.2842C153.668 63.9292 153.509 63.5955 153.289 63.3021C153.07 63.0088 152.795 62.7615 152.48 62.5745C142.344 56.5731 130.779 53.413 119 53.4264Z" fill="#FF2127"/>
<path d="M119 185.442C127.771 185.458 136.455 183.707 144.535 180.293C144.88 180.156 145.194 179.951 145.458 179.691C145.723 179.431 145.933 179.121 146.077 178.778C146.22 178.436 146.293 178.068 146.293 177.697C146.292 177.326 146.217 176.958 146.073 176.617C145.929 176.275 145.717 175.965 145.452 175.706C145.186 175.446 144.871 175.243 144.526 175.107C144.181 174.971 143.812 174.905 143.441 174.913C143.069 174.922 142.704 175.004 142.365 175.156C133.702 178.796 124.308 180.361 114.933 179.726C105.558 179.09 96.4611 176.272 88.3687 171.496C87.7325 171.119 86.9724 171.009 86.2554 171.192C85.5385 171.375 84.9235 171.835 84.5458 172.471C84.1681 173.107 84.0585 173.867 84.2412 174.584C84.4239 175.301 84.884 175.916 85.5201 176.294C95.6557 182.295 107.221 185.455 119 185.442Z" fill="#FF2127"/>
<path d="M119 237.504C141.837 237.529 164.186 230.898 183.314 218.421C183.626 218.224 183.896 217.966 184.108 217.664C184.32 217.361 184.47 217.019 184.549 216.658C184.628 216.297 184.634 215.924 184.567 215.56C184.501 215.197 184.362 214.85 184.161 214.541C183.959 214.231 183.697 213.965 183.392 213.757C183.086 213.549 182.742 213.404 182.38 213.331C182.018 213.257 181.645 213.256 181.282 213.328C180.92 213.4 180.575 213.543 180.268 213.749C160.908 226.315 138.151 232.623 115.084 231.817C92.0167 231.01 69.7558 223.129 51.3202 209.241C32.8846 195.353 19.1664 176.132 12.0262 154.183C4.88593 132.234 4.6692 108.62 11.4054 86.5434C11.6226 85.8363 11.55 85.0718 11.2036 84.4181C10.8571 83.7645 10.2652 83.2753 9.55806 83.058C8.85091 82.8408 8.08642 82.9134 7.43278 83.2598C6.77914 83.6063 6.28989 84.1982 6.07267 84.9053C0.685548 102.559 -0.48971 121.229 2.64114 139.419C5.772 157.608 13.1218 174.811 24.1012 189.648C35.0806 204.484 49.3839 216.541 65.8641 224.852C82.3444 233.163 100.543 237.496 119 237.504Z" fill="#FF2127"/>
<path d="M54.6861 20.4466C54.3737 20.644 54.1036 20.9015 53.8916 21.2042C53.6796 21.5069 53.5298 21.8488 53.4511 22.2098C53.3723 22.5709 53.3661 22.9441 53.4327 23.3076C53.4994 23.6711 53.6377 24.0177 53.8395 24.3273C54.0413 24.6369 54.3026 24.9033 54.6083 25.1111C54.9139 25.3188 55.2578 25.4637 55.62 25.5374C55.9821 25.6111 56.3553 25.6121 56.7179 25.5403C57.0804 25.4685 57.425 25.3253 57.7318 25.1192C77.0922 12.5528 99.8491 6.24504 122.916 7.05142C145.983 7.8578 168.244 15.7393 186.68 29.627C205.115 43.5146 218.834 62.7364 225.974 84.6854C233.114 106.634 233.331 130.248 226.595 152.325C226.377 153.032 226.45 153.796 226.796 154.45C227.143 155.104 227.735 155.593 228.442 155.81C229.149 156.027 229.914 155.955 230.567 155.608C231.221 155.262 231.71 154.67 231.927 153.963C239.019 130.788 238.807 105.992 231.319 82.9421C223.831 59.8922 209.431 39.7055 190.073 25.1232C170.715 10.5409 147.338 2.26985 123.117 1.43319C98.8958 0.596521 75.004 7.23481 54.6861 20.4466Z" fill="#FF2127"/>
<path d="M119 129.661C124.648 129.661 129.227 125.082 129.227 119.434C129.227 113.786 124.648 109.208 119 109.208C113.352 109.208 108.773 113.786 108.773 119.434C108.773 125.082 113.352 129.661 119 129.661Z" fill="#FF2127"/>
</svg>
