<svg width="35" height="36" viewBox="0 0 35 36" fill="none" xmlns="http://www.w3.org/2000/svg">
<path fill-rule="evenodd" clip-rule="evenodd" d="M7.72437 0.8125C5.75782 0.8125 3.87177 1.59351 2.48094 2.98381C1.09011 4.3741 0.308372 6.25985 0.307617 8.2264V28.0044C0.307617 29.9714 1.08902 31.8579 2.47993 33.2488C3.87084 34.6397 5.75732 35.4211 7.72437 35.4211H27.5024C29.4689 35.4204 31.3547 34.6387 32.745 33.2478C34.1353 31.857 34.9163 29.9709 34.9163 28.0044V8.2264C34.9155 6.26034 34.1342 4.37503 32.7439 2.98481C31.3537 1.5946 29.4684 0.813255 27.5024 0.8125H7.72437ZM29.6357 8.23779C29.6357 8.80434 29.4106 9.34768 29.01 9.74829C28.6094 10.1489 28.0661 10.374 27.4995 10.374C26.933 10.374 26.3896 10.1489 25.989 9.74829C25.5884 9.34768 25.3634 8.80434 25.3634 8.23779C25.3634 7.67125 25.5884 7.12791 25.989 6.7273C26.3896 6.32669 26.933 6.10163 27.4995 6.10163C28.0661 6.10163 28.6094 6.32669 29.01 6.7273C29.4106 7.12791 29.6357 7.67125 29.6357 8.23779ZM17.6162 12.1911C16.045 12.1911 14.5381 12.8153 13.4271 13.9263C12.3161 15.0373 11.6919 16.5442 11.6919 18.1154C11.6919 19.6866 12.3161 21.1935 13.4271 22.3045C14.5381 23.4155 16.045 24.0397 17.6162 24.0397C19.1874 24.0397 20.6943 23.4155 21.8053 22.3045C22.9163 21.1935 23.5405 19.6866 23.5405 18.1154C23.5405 16.5442 22.9163 15.0373 21.8053 13.9263C20.6943 12.8153 19.1874 12.1911 17.6162 12.1911ZM8.84087 18.1154C8.84087 15.7888 9.76511 13.5575 11.4103 11.9123C13.0554 10.2671 15.2868 9.3429 17.6134 9.3429C19.94 9.3429 22.1713 10.2671 23.8165 11.9123C25.4616 13.5575 26.3859 15.7888 26.3859 18.1154C26.3859 20.442 25.4616 22.6733 23.8165 24.3185C22.1713 25.9637 19.94 26.8879 17.6134 26.8879C15.2868 26.8879 13.0554 25.9637 11.4103 24.3185C9.76511 22.6733 8.84087 20.442 8.84087 18.1154Z" fill="#FF2127"/>
</svg>
