<svg width="31" height="31" viewBox="0 0 31 31" fill="none" xmlns="http://www.w3.org/2000/svg">
<g filter="url(#filter0_d_101_156)">
<path fill-rule="evenodd" clip-rule="evenodd" d="M8.92898 0C7.62206 -9.63688e-08 6.36864 0.519042 5.44433 1.44299C4.52002 2.36695 4.0005 3.62017 4 4.92708V18.071C4 19.3783 4.5193 20.632 5.44366 21.5563C6.36803 22.4807 7.62173 23 8.92898 23H22.0729C23.3798 22.9995 24.6331 22.48 25.557 21.5557C26.481 20.6314 27 19.3779 27 18.071V4.92708C26.9995 3.62049 26.4802 2.36756 25.5563 1.44366C24.6324 0.519765 23.3795 0.000501666 22.0729 0H8.92898ZM23.4907 4.93466C23.4907 5.31117 23.3411 5.67226 23.0749 5.93849C22.8086 6.20472 22.4475 6.35429 22.071 6.35429C21.6945 6.35429 21.3334 6.20472 21.0672 5.93849C20.801 5.67226 20.6514 5.31117 20.6514 4.93466C20.6514 4.55814 20.801 4.19705 21.0672 3.93082C21.3334 3.66459 21.6945 3.51502 22.071 3.51502C22.4475 3.51502 22.8086 3.66459 23.0749 3.93082C23.3411 4.19705 23.4907 4.55814 23.4907 4.93466ZM15.5028 7.56193C14.4586 7.56193 13.4572 7.97673 12.7189 8.71509C11.9805 9.45344 11.5657 10.4549 11.5657 11.4991C11.5657 12.5432 11.9805 13.5447 12.7189 14.283C13.4572 15.0214 14.4586 15.4362 15.5028 15.4362C16.547 15.4362 17.5485 15.0214 18.2868 14.283C19.0252 13.5447 19.44 12.5432 19.44 11.4991C19.44 10.4549 19.0252 9.45344 18.2868 8.71509C17.5485 7.97673 16.547 7.56193 15.5028 7.56193ZM9.67097 11.4991C9.67097 9.95285 10.2852 8.46997 11.3785 7.37664C12.4719 6.28331 13.9547 5.66908 15.5009 5.66908C17.0472 5.66908 18.53 6.28331 19.6234 7.37664C20.7167 8.46997 21.3309 9.95285 21.3309 11.4991C21.3309 13.0453 20.7167 14.5281 19.6234 15.6215C18.53 16.7148 17.0472 17.329 15.5009 17.329C13.9547 17.329 12.4719 16.7148 11.3785 15.6215C10.2852 14.5281 9.67097 13.0453 9.67097 11.4991Z" fill="#EABB38"/>
<path d="M8.92871 0.5H22.0723L22.292 0.505859C23.3862 0.560481 24.4248 1.01853 25.2031 1.79688C25.9815 2.57522 26.4395 3.61381 26.4941 4.70801L26.5 4.92773V18.0713L26.4941 18.291C26.4398 19.3853 25.9814 20.4236 25.2031 21.2021C24.3729 22.0326 23.2466 22.4995 22.0723 22.5H8.92871C7.75417 22.4999 6.62741 22.0337 5.79688 21.2031C4.96634 20.3726 4.50007 19.2458 4.5 18.0713V4.92773C4.50045 3.75344 4.96738 2.62709 5.79785 1.79688C6.57638 1.01864 7.61474 0.560241 8.70898 0.505859L8.92871 0.5ZM15.501 5.16895C13.8222 5.16895 12.2125 5.83636 11.0254 7.02344C9.8383 8.21053 9.17091 9.82022 9.1709 11.499C9.1709 13.1778 9.83829 14.7875 11.0254 15.9746C12.1384 17.0876 13.6228 17.7438 15.1875 17.8213L15.501 17.8291C17.1798 17.8291 18.7895 17.1617 19.9766 15.9746C21.1636 14.7875 21.8311 13.1778 21.8311 11.499C21.831 9.82022 21.1637 8.21053 19.9766 7.02344C18.7895 5.83634 17.1798 5.16895 15.501 5.16895ZM15.5029 8.06152C16.4145 8.06155 17.289 8.4238 17.9336 9.06836C18.5782 9.71294 18.9404 10.5875 18.9404 11.499C18.9404 12.4106 18.5781 13.2851 17.9336 13.9297C17.289 14.5743 16.4145 14.9365 15.5029 14.9365C14.5914 14.9365 13.7168 14.5743 13.0723 13.9297C12.4277 13.2851 12.0654 12.4106 12.0654 11.499C12.0654 10.5875 12.4277 9.71294 13.0723 9.06836C13.7168 8.42381 14.5914 8.06152 15.5029 8.06152ZM22.0713 3.01465C21.5623 3.01465 21.0739 3.21726 20.7139 3.57715C20.3539 3.93713 20.1514 4.42548 20.1514 4.93457C20.1514 5.44369 20.3539 5.93199 20.7139 6.29199C21.0288 6.60683 21.4416 6.80101 21.8809 6.84473L22.0713 6.85449C22.5803 6.85442 23.0688 6.65193 23.4287 6.29199C23.7886 5.93201 23.9902 5.44361 23.9902 4.93457C23.9902 4.42552 23.7886 3.93712 23.4287 3.57715C23.0688 3.21721 22.5803 3.01472 22.0713 3.01465Z" stroke="black"/>
</g>
<defs>
<filter id="filter0_d_101_156" x="0" y="0" width="31" height="31" filterUnits="userSpaceOnUse" color-interpolation-filters="sRGB">
<feFlood flood-opacity="0" result="BackgroundImageFix"/>
<feColorMatrix in="SourceAlpha" type="matrix" values="0 0 0 0 0 0 0 0 0 0 0 0 0 0 0 0 0 0 127 0" result="hardAlpha"/>
<feOffset dy="4"/>
<feGaussianBlur stdDeviation="2"/>
<feComposite in2="hardAlpha" operator="out"/>
<feColorMatrix type="matrix" values="0 0 0 0 0 0 0 0 0 0 0 0 0 0 0 0 0 0 0.25 0"/>
<feBlend mode="normal" in2="BackgroundImageFix" result="effect1_dropShadow_101_156"/>
<feBlend mode="normal" in="SourceGraphic" in2="effect1_dropShadow_101_156" result="shape"/>
</filter>
</defs>
</svg>
