<svg width="36" height="51" viewBox="0 0 36 51" fill="none" xmlns="http://www.w3.org/2000/svg">
<path d="M17.535 23.8654C15.8741 23.8654 14.2812 23.2056 13.1068 22.0312C11.9323 20.8567 11.2725 19.2638 11.2725 17.6029C11.2725 15.942 11.9323 14.3491 13.1068 13.1747C14.2812 12.0002 15.8741 11.3404 17.535 11.3404C19.196 11.3404 20.7889 12.0002 21.9633 13.1747C23.1378 14.3491 23.7976 15.942 23.7976 17.6029C23.7976 18.4253 23.6356 19.2397 23.3209 19.9995C23.0061 20.7593 22.5448 21.4497 21.9633 22.0312C21.3818 22.6127 20.6914 23.074 19.9316 23.3887C19.1718 23.7035 18.3575 23.8654 17.535 23.8654ZM17.535 0.0678711C12.8845 0.0678711 8.42436 1.91531 5.1359 5.20377C1.84744 8.49223 0 12.9523 0 17.6029C0 30.7542 17.535 50.168 17.535 50.168C17.535 50.168 35.0701 30.7542 35.0701 17.6029C35.0701 12.9523 33.2227 8.49223 29.9342 5.20377C26.6457 1.91531 22.1856 0.0678711 17.535 0.0678711Z" fill="#FF2127"/>
</svg>
