<svg width="222" height="223" viewBox="0 0 222 223" fill="none" xmlns="http://www.w3.org/2000/svg">
<path d="M199.622 7.74024L164.955 25.0707C163.777 25.6567 163.032 26.8579 163.031 28.1734V40.6191L79.8016 123.849L75.3301 119.377C73.9271 117.974 71.8023 117.99 70.4183 119.377L60.0188 129.804C57.7437 132.085 59.4312 134.148 60.4592 135.176L85.296 160.013L42.0992 203.217C35.171 210.145 24.6752 210.372 18.3871 204.083C12.0991 197.795 12.3261 187.299 19.2543 180.371L52.9052 146.7C56.6997 143.449 51.2642 138.014 48.0137 141.808L14.3425 175.459C4.93631 184.865 4.38312 199.889 13.4685 208.975C22.554 218.06 37.5778 217.507 46.9839 208.1L103.067 152.024C104.412 150.671 104.412 148.486 103.067 147.133L98.5748 142.641L181.804 59.4114H194.25C195.563 59.4079 196.761 58.663 197.346 57.4874L214.703 22.7933C215.364 21.4566 215.097 19.8473 214.04 18.796L203.647 8.37599C202.75 7.47663 201.19 6.9569 199.622 7.74024ZM31.2188 7.36655C28.1294 7.36787 26.5825 11.1026 28.7662 13.2879L52.0312 36.5529V44.0867L43.6575 52.461H36.1238L12.8588 29.196C10.6735 27.0122 6.93872 28.5589 6.9375 31.6486V59.3986C6.93768 60.3189 7.30322 61.2004 7.95374 61.8508L25.2975 79.1948C25.9479 79.845 26.8301 80.2106 27.75 80.2106H54.0637L81.4004 107.548C84.6698 110.953 89.7109 105.912 86.3055 102.643L57.9525 74.2896C57.3021 73.6394 56.4199 73.2734 55.5 73.2734H29.1863L13.875 57.9623V40.0221L32.235 58.3824C32.8854 59.0326 33.7676 59.3982 34.6875 59.3982H45.0938C46.0137 59.3981 46.8958 59.0326 47.5463 58.3824L57.9525 47.976C58.603 47.3257 58.9686 46.4433 58.9688 45.5234V35.1174C58.9686 34.197 58.603 33.3153 57.9525 32.6648L39.5925 14.3046H57.5325L72.8437 29.6161V55.9298C72.8439 56.8501 73.2095 57.732 73.86 58.3824L102.213 86.7353C105.482 90.1407 110.523 85.0995 107.118 81.8302L79.7812 54.4935V28.1798C79.7811 27.2594 79.4155 26.3776 78.765 25.7272L61.4213 8.38359C60.7708 7.73332 59.8887 7.36735 58.9688 7.36735L31.2188 7.36655ZM200.496 15.0631L207.38 21.9259L192.096 52.4738H180.368C179.449 52.4668 178.564 52.8254 177.909 53.4704L93.6698 137.73L84.7134 128.767L168.946 44.5072C169.603 43.8569 169.974 42.9721 169.976 42.0478V30.3203L200.496 15.0631ZM138.127 114.275C135.014 114.275 133.477 118.059 135.708 120.23L164.047 148.569C164.698 149.22 165.58 149.585 166.5 149.585H192.814L208.125 164.897V182.836L189.765 164.477C189.115 163.826 188.232 163.461 187.312 163.461H176.906C175.986 163.461 175.104 163.826 174.454 164.477L164.047 174.883C163.397 175.533 163.031 176.416 163.031 177.336V187.742C163.031 188.662 163.397 189.544 164.047 190.194L182.407 208.554H164.468L149.156 193.243V166.929C149.156 166.009 148.79 165.127 148.14 164.477L119.801 136.137C116.531 132.732 111.49 137.773 114.896 141.042L142.219 168.365V194.679C142.219 195.599 142.584 196.481 143.235 197.132L160.579 214.475C161.229 215.126 162.111 215.492 163.031 215.492H190.781C193.871 215.49 195.417 211.756 193.234 209.57L169.969 186.305V178.771L178.342 170.398H185.876L209.141 193.662C211.326 195.846 215.061 194.3 215.062 191.21V163.46C215.062 162.54 214.697 161.658 214.046 161.008L196.702 143.664C196.052 143.014 195.17 142.648 194.25 142.648H167.936L140.613 115.325C139.96 114.654 139.063 114.275 138.127 114.275ZM72.8776 126.754L95.7158 149.592L90.2078 155.1L67.3493 132.262L72.8776 126.754Z" fill="#FF2127"/>
</svg>
