<svg width="26" height="18" viewBox="0 0 26 18" fill="none" xmlns="http://www.w3.org/2000/svg">
<path d="M1.44445 1.90735e-05C1.03519 1.90735e-05 0.692375 0.14402 0.416005 0.43202C0.139635 0.72002 0.000967943 1.07602 4.98084e-06 1.50002C-0.000957982 1.92402 0.137709 2.28002 0.416005 2.56802C0.694301 2.85602 1.03712 3.00002 1.44445 3.00002H24.5555C24.9648 3.00002 25.3081 2.85602 25.5854 2.56802C25.8628 2.28002 26.001 1.92402 26 1.50002C25.999 1.07602 25.8604 0.719521 25.584 0.430521C25.3076 0.141521 24.9648 -0.00197983 24.5555 1.90735e-05H1.44445ZM1.44445 7.50001C1.03519 7.50001 0.692375 7.64401 0.416005 7.93201C0.139635 8.22001 0.000967943 8.57601 4.98084e-06 9.00001C-0.000957982 9.42401 0.137709 9.78001 0.416005 10.068C0.694301 10.356 1.03712 10.5 1.44445 10.5H24.5555C24.9648 10.5 25.3081 10.356 25.5854 10.068C25.8628 9.78001 26.001 9.42401 26 9.00001C25.999 8.57601 25.8604 8.21951 25.584 7.93051C25.3076 7.64151 24.9648 7.49801 24.5555 7.50001H1.44445ZM1.44445 15C1.03519 15 0.692375 15.144 0.416005 15.432C0.139635 15.72 0.000967943 16.076 4.98084e-06 16.5C-0.000957982 16.924 0.137709 17.28 0.416005 17.568C0.694301 17.856 1.03712 18 1.44445 18H24.5555C24.9648 18 25.3081 17.856 25.5854 17.568C25.8628 17.28 26.001 16.924 26 16.5C25.999 16.076 25.8604 15.7195 25.584 15.4305C25.3076 15.1415 24.9648 14.998 24.5555 15H1.44445Z" fill="#EABB38"/>
</svg>
