<svg width="258" height="259" viewBox="0 0 258 259" fill="none" xmlns="http://www.w3.org/2000/svg">
<path d="M129 174.786C117.886 174.786 108.844 183.828 108.844 194.942C108.844 206.056 117.886 215.098 129 215.098C140.114 215.098 149.156 206.056 149.156 194.942C149.156 183.828 140.114 174.786 129 174.786ZM129 205.02C123.443 205.02 118.922 200.499 118.922 194.942C118.922 189.385 123.443 184.864 129 184.864C134.557 184.864 139.078 189.385 139.078 194.942C139.078 200.499 134.557 205.02 129 205.02Z" fill="#FF2127"/>
<path d="M244.898 109.278C244.898 92.5537 233.195 78.5204 217.55 74.9134C216.721 74.335 225.22 78.0966 86.8427 19.2842C79.8586 15.6153 71.914 13.5356 63.4922 13.5356C35.7068 13.5356 13.1016 36.1409 13.1016 63.9263C13.1016 71.7101 14.9237 79.2606 17.9905 85.5655C18.0222 85.632 83.1733 215.961 83.4625 216.504C91.5572 233.532 108.925 245.333 129 245.333C148.598 245.333 165.616 234.086 173.946 217.71L231.936 136.575C239.843 130.101 244.898 120.27 244.898 109.278ZM234.82 109.278C234.82 123.171 223.518 134.473 209.625 134.473C195.732 134.473 184.43 123.171 184.43 109.278C184.43 95.3851 195.732 84.0825 209.625 84.0825C223.518 84.0825 234.82 95.3851 234.82 109.278ZM63.4922 23.6138C85.7205 23.6138 103.805 41.698 103.805 63.9263C103.805 86.1546 85.7205 104.239 63.4922 104.239C47.7673 104.239 34.1255 95.1826 27.4836 82.017L27.0829 81.2153C24.5831 75.9727 23.1797 70.1107 23.1797 63.9263C23.1797 41.698 41.2639 23.6138 63.4922 23.6138ZM129 235.254C106.772 235.254 88.6875 217.17 88.6875 194.942C88.6875 172.714 106.772 154.629 129 154.629C151.228 154.629 169.312 172.714 169.312 194.942C169.312 217.17 151.228 235.254 129 235.254ZM179.343 192.827C178.23 166.019 156.077 144.551 129 144.551C104.298 144.551 83.6923 162.417 79.4222 185.906L40.9711 108.995C47.7527 112.398 55.402 114.317 63.4922 114.317C91.2776 114.317 113.883 91.7117 113.883 63.9263C113.883 54.8161 111.452 46.2634 107.207 38.8816L196.187 76.6711C183.385 81.9666 174.352 94.5849 174.352 109.278C174.352 130.331 192.837 146.938 214.053 144.264L179.343 192.827Z" fill="#FF2127"/>
<path d="M194.508 109.278C194.508 117.613 201.289 124.395 209.625 124.395C217.961 124.395 224.742 117.613 224.742 109.278C224.742 100.942 217.961 94.1606 209.625 94.1606C201.289 94.1606 194.508 100.942 194.508 109.278ZM214.664 109.278C214.664 112.056 212.404 114.317 209.625 114.317C206.846 114.317 204.586 112.056 204.586 109.278C204.586 106.499 206.846 104.239 209.625 104.239C212.404 104.239 214.664 106.499 214.664 109.278Z" fill="#FF2127"/>
<path d="M33.2578 68.9653H38.8038C39.4584 72.1772 40.7287 75.1669 42.4818 77.8104L38.5503 81.7424C36.5826 83.7101 36.5826 86.9009 38.5508 88.8686C40.5186 90.8364 43.7093 90.8364 45.6771 88.8686L49.6086 84.9371C52.2521 86.6897 55.2417 87.9601 58.4536 88.6147V94.1606C58.4536 96.9437 60.7096 99.1997 63.4927 99.1997C66.2758 99.1997 68.5318 96.9437 68.5318 94.1606V88.6147C71.7437 87.9601 74.7333 86.6897 77.3768 84.9371L81.3083 88.8686C83.2755 90.8364 86.4663 90.8369 88.4345 88.8686C90.4023 86.9009 90.4028 83.7101 88.435 81.7424L84.5036 77.8104C86.2567 75.1669 87.527 72.1772 88.1816 68.9653H93.7266C96.5096 68.9653 98.7656 66.7093 98.7656 63.9263C98.7656 61.1432 96.5096 58.8872 93.7266 58.8872H88.1806C87.526 55.6753 86.2556 52.6856 84.5031 50.0421L88.4345 46.1107C90.4023 44.1429 90.4023 40.9522 88.4345 38.9839C86.4668 37.0162 83.276 37.0162 81.3078 38.9839L77.3763 42.9154C74.7328 41.1628 71.7431 39.892 68.5312 39.2379V33.6919C68.5312 30.9088 66.2753 28.6528 63.4922 28.6528C60.7091 28.6528 58.4531 30.9088 58.4531 33.6919V39.2379C55.2412 39.8925 52.2516 41.1628 49.6081 42.9154L45.6766 38.9839C43.7088 37.0162 40.5181 37.0162 38.5498 38.9839C36.5821 40.9517 36.5821 44.1424 38.5498 46.1107L42.4813 50.0421C40.7287 52.6856 39.4579 55.6753 38.8038 58.8872H33.2578C30.4747 58.8872 28.2188 61.1432 28.2188 63.9263C28.2188 66.7093 30.4747 68.9653 33.2578 68.9653ZM63.4922 48.8091C71.8278 48.8091 78.6094 55.5907 78.6094 63.9263C78.6094 72.2619 71.8278 79.0435 63.4922 79.0435C55.1566 79.0435 48.375 72.2619 48.375 63.9263C48.375 55.5907 55.1566 48.8091 63.4922 48.8091Z" fill="#FF2127"/>
</svg>
