<svg width="58" height="65" viewBox="0 0 58 65" fill="none" xmlns="http://www.w3.org/2000/svg">
<path d="M57.0478 12.7733L29.9132 0.706342C29.7134 0.612418 29.4954 0.563721 29.2747 0.563721C29.054 0.563721 28.836 0.612418 28.6363 0.706342L1.50164 12.7733C1.22106 12.8957 0.981601 13.0962 0.8118 13.3509C0.641998 13.6056 0.549019 13.9037 0.543945 14.2098V22.7652C0.543945 38.4713 9.92933 57.4975 28.7001 64.0737C29.0727 64.2001 29.4767 64.2001 29.8493 64.0737C48.6201 57.4975 58.0055 38.4713 58.0055 22.7652V14.2098C58.0004 13.9037 57.9074 13.6056 57.7376 13.3509C57.5678 13.0962 57.3284 12.8957 57.0478 12.7733ZM44.2403 23.3398L27.3849 44.7985C27.1399 45.1078 26.8324 45.3621 26.4826 45.5447C26.1328 45.7273 25.7484 45.8342 25.3546 45.8583L25.1886 45.8647C24.4463 45.8635 23.7348 45.5685 23.2093 45.0443L14.5263 36.3612C14.0026 35.8363 13.7089 35.1249 13.7098 34.3834C13.7107 33.6419 14.0061 32.9312 14.531 32.4076C15.056 31.8839 15.7674 31.5902 16.5089 31.5911C17.2503 31.592 17.9611 31.8874 18.4847 32.4123L24.9396 38.8672L39.8476 19.8889C40.3137 19.3304 40.9791 18.9755 41.7025 18.8994C42.426 18.8234 43.1506 19.0323 43.7225 19.4817C44.2945 19.9312 44.6689 20.5858 44.7661 21.3067C44.8634 22.0276 44.6759 22.7581 44.2434 23.343L44.2403 23.3398Z" fill="black"/>
</svg>
