<svg width="16" height="16" viewBox="0 0 16 16" fill="none" xmlns="http://www.w3.org/2000/svg">
<path d="M6.83333 11.1111L9.94445 8L6.83333 4.88889M1 13.1333L0.999999 2.86666C0.999999 2.37159 1.19667 1.8968 1.54673 1.54673C1.8968 1.19666 2.3716 0.999998 2.86667 0.999998L13.1333 0.999997C13.6284 0.999997 14.1032 1.19666 14.4533 1.54673C14.8033 1.8968 15 2.37159 15 2.86666L15 13.1333C15 13.6284 14.8033 14.1032 14.4533 14.4533C14.1032 14.8033 13.6284 15 13.1333 15L2.86667 15C2.62153 15 2.3788 14.9517 2.15232 14.8579C1.92585 14.7641 1.72007 14.6266 1.54673 14.4533C1.19667 14.1032 1 13.6284 1 13.1333Z" stroke="black" stroke-width="1.16667" stroke-linecap="round" stroke-linejoin="round"/>
</svg>
