<svg width="13" height="13" viewBox="0 0 13 13" fill="none" xmlns="http://www.w3.org/2000/svg">
<path d="M5.13687 8.79173L7.58513 6.34347L5.13687 3.89521M0.546387 10.3831L0.546386 2.30384C0.546386 1.91425 0.701151 1.54061 0.976633 1.26513C1.25212 0.989648 1.62575 0.834884 2.01534 0.834884L10.0946 0.834883C10.4842 0.834883 10.8578 0.989648 11.1333 1.26513C11.4088 1.54061 11.5636 1.91425 11.5636 2.30384L11.5636 10.3831C11.5636 10.7727 11.4088 11.1463 11.1333 11.4218C10.8578 11.6973 10.4842 11.8521 10.0946 11.8521L2.01534 11.8521C1.82244 11.8521 1.63142 11.8141 1.4532 11.7402C1.27498 11.6664 1.11304 11.5582 0.976634 11.4218C0.701151 11.1463 0.546387 10.7727 0.546387 10.3831Z" stroke="#FF2127" stroke-width="0.918097" stroke-linecap="round" stroke-linejoin="round"/>
</svg>
