<svg width="35" height="36" viewBox="0 0 35 36" fill="none" xmlns="http://www.w3.org/2000/svg">
<path fill-rule="evenodd" clip-rule="evenodd" d="M4.38548 1.83203C4.76396 1.45413 5.21843 1.16097 5.71877 0.971988C6.21911 0.783007 6.75391 0.702518 7.28771 0.735855C7.82152 0.769193 8.34214 0.915595 8.81509 1.16536C9.28803 1.41512 9.7025 1.76255 10.031 2.18461L13.9137 7.17258C14.6253 8.08755 14.8762 9.27938 14.595 10.4042L13.4118 15.1412C13.3511 15.3866 13.3546 15.6435 13.4221 15.8871C13.4895 16.1307 13.6186 16.3529 13.7969 16.5321L19.1115 21.8466C19.2909 22.0253 19.5134 22.1546 19.7574 22.222C20.0014 22.2895 20.2588 22.2928 20.5045 22.2317L25.2394 21.0485C25.7945 20.9105 26.3737 20.9001 26.9334 21.0181C27.4931 21.1362 28.0188 21.3795 28.4709 21.7298L33.4589 25.6103C35.2521 27.0055 35.4165 29.6552 33.8115 31.258L31.5749 33.4946C29.9742 35.0953 27.5819 35.7983 25.3518 35.0131C19.6429 33.007 14.4599 29.739 10.1889 25.4524C5.90258 21.1821 2.63461 15.9999 0.628278 10.2917C-0.154743 8.06375 0.548245 5.66927 2.14889 4.06862L4.38548 1.83203Z" fill="#FF2127"/>
</svg>
