<svg width="35" height="36" viewBox="0 0 35 36" fill="none" xmlns="http://www.w3.org/2000/svg">
<path d="M32.014 8.48028C26.8451 0.458633 16.26 -1.91815 8.07383 3.05824C0.0855248 8.03464 -2.48656 18.8787 2.68234 26.8756L3.10278 27.5193L1.37157 34.006L7.85125 32.2729L8.49427 32.6938C11.2889 34.204 14.3309 35.0706 17.3482 35.0706C20.588 35.0706 23.8279 34.204 26.6225 32.471C34.6108 27.2717 36.9851 16.6505 32.014 8.43077V8.48028ZM27.4881 25.1673C26.6225 26.4547 25.5343 27.3213 24.0257 27.5441C23.1601 27.5441 22.0719 27.965 17.7686 26.2567C14.1083 24.5236 11.0664 21.7011 8.91471 18.4578C7.62866 16.9476 6.96091 14.9917 6.76306 13.0358C6.76306 11.3027 7.40608 9.79247 8.49427 8.70311C8.91471 8.28222 9.35987 8.05939 9.78031 8.05939H10.8685C11.2889 8.05939 11.7341 8.05939 11.9567 8.92593C12.3771 10.0153 13.4653 12.6149 13.4653 12.8377C13.6879 13.0605 13.589 14.7193 12.5997 15.6602C12.0556 16.2791 11.9567 16.3039 12.1793 16.7495C13.0449 18.0369 14.1331 19.3491 15.1965 20.4385C16.4826 21.5278 17.7934 22.3944 19.302 23.0381C19.7224 23.2609 20.1676 23.2609 20.3902 22.8153C20.6128 22.3944 21.6762 21.305 22.1214 20.8594C22.5418 20.4385 22.7644 20.4385 23.2096 20.6365L26.672 22.3696C27.0924 22.5924 27.5376 22.7905 27.7602 23.0133C27.9828 23.657 27.9828 24.5236 27.5376 25.1673H27.4881Z" fill="#FF2127"/>
</svg>
