<svg width="23" height="23" viewBox="0 0 23 23" fill="none" xmlns="http://www.w3.org/2000/svg">
<path d="M21.2757 5.3288C17.8406 -0.00218032 10.806 -1.58173 5.36566 1.72545C0.0568375 5.03263 -1.6525 12.2393 1.78261 17.5538L2.06203 17.9816L0.911508 22.2925L5.21773 21.1407L5.64507 21.4205C7.50233 22.4241 9.52396 23 11.5291 23C13.6823 23 15.8354 22.4241 17.6926 21.2724C23.0015 17.8171 24.5793 10.7585 21.2757 5.29589V5.3288ZM18.2679 16.4185C17.6926 17.2741 16.9695 17.85 15.9669 17.9981C15.3916 17.9981 14.6684 18.2778 11.8086 17.1425C9.37603 15.9908 7.35441 14.115 5.92448 11.9596C5.06981 10.9559 4.62604 9.6561 4.49455 8.35627C4.49455 7.20451 4.92189 6.20084 5.64507 5.47688C5.92448 5.19717 6.22033 5.04909 6.49974 5.04909H7.22292C7.50233 5.04909 7.79818 5.04909 7.9461 5.62496C8.22552 6.34892 8.9487 8.07656 8.9487 8.22464C9.09662 8.37272 9.03088 9.47511 8.37344 10.1004C8.01185 10.5117 7.9461 10.5281 8.09403 10.8243C8.66929 11.6799 9.39247 12.5519 10.0992 13.2759C10.9539 13.9999 11.825 14.5757 12.8276 15.0035C13.107 15.1516 13.4028 15.1516 13.5508 14.8555C13.6987 14.5757 14.4054 13.8518 14.7013 13.5556C14.9807 13.2759 15.1286 13.2759 15.4245 13.4075L17.7255 14.5593C18.0049 14.7074 18.3008 14.839 18.4487 14.9871C18.5966 15.4149 18.5966 15.9908 18.3008 16.4185H18.2679Z" fill="#EABB38"/>
</svg>
